# xmcd
#
# Track frame offsets:
#  150
#  18789
#  35709
#  52459
#  68777
#  94021
#  105036
#  123988
#  158253
#  184061
#  204246
#  222293
#  235500
#  261871
#  272669
#  294152
#  319831
#  327040
#
# Disc length: 4510 seconds
#
# Revision: 0
# Processed by: cddbd v1.5.2PL0 Copyright (c) Steve Scherf et al.
# Submitted via: AltoMP3_Maker 3.0
#
DISCID=ee119c12
DTITLE=Various Artist - Disco_r.dance volume 1 [CD 1)
DYEAR=1900
DGENRE=
TTITLE0=Tunng - Little King (featuring Summit)
TTITLE1=Carthage - I Never Knew
TTITLE2=Ecd - Kakke No Tokachi (Ugh remix)
TTITLE3=randomNumber - Wake Up With Slide
TTITLE4=Ra - Petit Gilet (remix)
TTITLE5=Agaskodo Teliverek - Blood Club
TTITLE6=Stormcrow - Mousseoom
TTITLE7=Bedouin Ascent - Hearts and Lands
TTITLE8=Two Slender Cats - when are you bringing 
TTITLE9=Bell - Eat The Evidence (disco_r.dance mix)
TTITLE10=Mothboy - Bluebirds (feat. Moxey)
TTITLE11=3d!t - Blesphlegmy
TTITLE12=Walter and Sabrina - Tiny Small
TTITLE13=Rothko - Breaking The Fall
TTITLE14=Addie Brik - IEW (Eu remix)
TTITLE15=AZ-Rotator - Neviko
TTITLE16=Guy J. Jackson - The man who was kind of  
TTITLE17=Xylitol - Ye-Ye Electronique
EXTD=
EXTT0=
EXTT1=
EXTT2=
EXTT3=
EXTT4=
EXTT5=
EXTT6=
EXTT7=
EXTT8=
EXTT9=
EXTT10=
EXTT11=
EXTT12=
EXTT13=
EXTT14=
EXTT15=
EXTT16=
EXTT17=
PLAYORDER=
